<svg id="Layer_1" data-name="Layer 1" xmlns="http://www.w3.org/2000/svg" xmlns:xlink="http://www.w3.org/1999/xlink" viewBox="0 0 373.49 93.36"><defs><style>.cls-1{fill:#2a2a2a;}.cls-2{font-size:9.54px;fill:#6d6e71;font-family:SourceSansPro-SemiboldIt, Source Sans Pro;font-weight:600;font-style:italic;letter-spacing:0.3em;}.cls-3{letter-spacing:0.29em;}.cls-4{letter-spacing:0.28em;}.cls-5{letter-spacing:0.31em;}.cls-6{letter-spacing:0.3em;}.cls-7{letter-spacing:0.29em;}.cls-8{letter-spacing:0.29em;}.cls-9{letter-spacing:0.31em;}.cls-10{fill:#ef4665;}.cls-11{fill:#fff;}.cls-12{fill:#b33255;}.cls-13{fill:url(#linear-gradient);}.cls-14{fill:url(#linear-gradient-2);}.cls-15{fill:url(#linear-gradient-3);}.cls-16{fill:url(#linear-gradient-4);}.cls-17{fill:url(#linear-gradient-5);}</style><linearGradient id="linear-gradient" x1="59.59" y1="42.47" x2="81.45" y2="42.47" gradientUnits="userSpaceOnUse"><stop offset="0.01" stop-color="#b33255"/><stop offset="0.71" stop-color="#dc4060"/><stop offset="1" stop-color="#ef4665"/></linearGradient><linearGradient id="linear-gradient-2" x1="59.59" y1="59.56" x2="81.45" y2="59.56" xlink:href="#linear-gradient"/><linearGradient id="linear-gradient-3" x1="59.59" y1="81.64" x2="81.45" y2="81.64" xlink:href="#linear-gradient"/><linearGradient id="linear-gradient-4" x1="0" y1="19.18" x2="81.45" y2="19.18" xlink:href="#linear-gradient"/><linearGradient id="linear-gradient-5" y1="14.2" x2="40.72" y2="14.2" gradientUnits="userSpaceOnUse"><stop offset="0" stop-color="#ef4665"/><stop offset="0.29" stop-color="#dc4060"/><stop offset="0.99" stop-color="#b33255"/></linearGradient></defs><path class="cls-1" d="M121.39,55.51a1.79,1.79,0,0,1,1.82-2.22h3.48a2.79,2.79,0,0,1,2.64,2.23l3,17.54c.21,1.23.54,3.24.73,4.47l1.5,9.46a9.51,9.51,0,0,0,.49,2.24,10.63,10.63,0,0,0,.57-2.22l1.9-9.5c.25-1.22.7-3.2,1-4.41l4.32-17.61a3,3,0,0,1,2.81-2.2h2.13a3,3,0,0,1,2.81,2.2l4.32,17.61c.3,1.21.75,3.19,1,4.41l2,9.5a10.63,10.63,0,0,0,.59,2.22,10.86,10.86,0,0,0,.47-2.24l1.46-9.46c.19-1.23.51-3.24.72-4.47l3-17.54a2.78,2.78,0,0,1,2.64-2.23h2.94a1.8,1.8,0,0,1,1.83,2.22l-7.54,39.17a2.87,2.87,0,0,1-2.7,2.22h-5.07a3,3,0,0,1-2.78-2.21L149,76.17c-.28-1.22-.71-3.21-.95-4.43L147,66.12a10.84,10.84,0,0,0-.53-2.23,10.47,10.47,0,0,0-.54,2.23l-1.09,5.62c-.24,1.22-.67,3.21-.95,4.43l-4.25,18.52a3,3,0,0,1-2.77,2.21h-4.94a2.88,2.88,0,0,1-2.7-2.22Z" transform="translate(-13.08 -28.08)"/><path class="cls-1" d="M204.7,87.27a3.19,3.19,0,0,0-2.89-2.18H191.74a3.18,3.18,0,0,0-2.89,2.18l-2.15,7.45a3.2,3.2,0,0,1-2.89,2.18H180.4a1.55,1.55,0,0,1-1.56-2.15L191.7,55.44a3.34,3.34,0,0,1,3-2.15h4.54a3.33,3.33,0,0,1,3,2.15L215,94.75a1.54,1.54,0,0,1-1.56,2.15h-3.67a3.18,3.18,0,0,1-2.89-2.18ZM200.08,79a1.62,1.62,0,0,0,1.64-2.18l-.29-1-1.23-4.36-2.75-10a11.29,11.29,0,0,0-.71-2.19,11.23,11.23,0,0,0-.69,2.2l-2.7,10c-.34,1.2-.89,3.16-1.24,4.36l-.28,1A1.62,1.62,0,0,0,193.47,79Z" transform="translate(-13.08 -28.08)"/><path class="cls-1" d="M252.24,96.9a4.23,4.23,0,0,1-3.35-2l-7.22-13.11a4.23,4.23,0,0,0-3.36-2h-2.07A2.27,2.27,0,0,0,234,82.09V94.63a2.27,2.27,0,0,1-2.27,2.27h-3.2a2.27,2.27,0,0,1-2.27-2.27V55.56a2.27,2.27,0,0,1,2.27-2.27h10.14c1.24,0,3.27.1,4.51.23,0,0,13.82,1.41,13.82,12.71,0,6.66-6.85,11.21-6.85,11.21a2.47,2.47,0,0,0-.76,3.22l8.15,14.27c.62,1.08.11,2-1.14,2ZM234,71.43a2.27,2.27,0,0,0,2.26,2.26h1.61a20.19,20.19,0,0,0,4.44-.6s7-1.93,7-6.86-7-6.32-7-6.32a29.52,29.52,0,0,0-4.49-.42h-1.61A2.27,2.27,0,0,0,234,61.75Z" transform="translate(-13.08 -28.08)"/><path class="cls-1" d="M270.42,87.76a2.6,2.6,0,0,1,3.34-.47S279.21,91,283.28,91c4.87,0,7.6-2.2,7.6-5.61,0-3.6-4.7-5.54-4.7-5.54-1.15-.47-3-1.27-4.17-1.77l-1.79-.78c-1.14-.5-3-1.43-4-2.06,0,0-6.85-4-6.85-10.45,0-6.94,6.13-12.27,14.6-12.27,5.13,0,11.58,4.28,11.58,4.28a2,2,0,0,1,.46,3l-1.15,1.42a2.57,2.57,0,0,1-3.32.52s-3.84-2.5-7.57-2.5c-4.13,0-6.8,1.94-6.8,5.14,0,3.4,4.83,5.3,4.83,5.3,1.16.46,3,1.23,4.19,1.71l1.69.71a34.51,34.51,0,0,1,4,2.07s6.88,4.28,6.88,10.61c0,7.07-5.87,12.94-15.67,12.94-5.87,0-13.77-5.17-13.77-5.17a1.94,1.94,0,0,1-.43-3Z" transform="translate(-13.08 -28.08)"/><path class="cls-1" d="M319.39,62.09a2.27,2.27,0,0,0-2.27-2.26h-8.07a2.27,2.27,0,0,1-2.27-2.27v-2a2.27,2.27,0,0,1,2.27-2.27H337.4a2.27,2.27,0,0,1,2.26,2.27v2a2.27,2.27,0,0,1-2.26,2.27h-8a2.27,2.27,0,0,0-2.27,2.26V94.63a2.27,2.27,0,0,1-2.26,2.27h-3.21a2.27,2.27,0,0,1-2.26-2.27Z" transform="translate(-13.08 -28.08)"/><path class="cls-1" d="M348.09,74.89c0-14.07,7.87-22.4,19.27-22.4s19.21,8.33,19.21,22.4S378.69,97.7,367.36,97.7,348.09,89,348.09,74.89Zm30.54,0c0-9.73-4.47-15.67-11.27-15.67S356,65.16,356,74.89,360.49,91,367.36,91,378.63,84.7,378.63,74.89Z" transform="translate(-13.08 -28.08)"/><text class="cls-2" transform="translate(111.37 90.58)">Built <tspan class="cls-3" x="38.03" y="0">t</tspan><tspan x="44.08" y="0">o </tspan><tspan class="cls-4" x="56.67" y="0">L</tspan><tspan x="63.97" y="0">as</tspan><tspan class="cls-5" x="78.83" y="0">t</tspan><tspan class="cls-6" x="85.07" y="0">, Pri</tspan><tspan class="cls-7" x="115.07" y="0">c</tspan><tspan x="121.98" y="0">ed </tspan><tspan class="cls-8" x="142.24" y="0">t</tspan><tspan x="148.29" y="0">o Fi</tspan><tspan class="cls-9" x="173.67" y="0">t</tspan><tspan x="179.91" y="0">.</tspan></text><polygon class="cls-10" points="40.72 12.97 0 33.33 0 91.88 54.8 91.88 54.8 20.01 40.72 12.97"/><polygon class="cls-11" points="20.47 87.93 19.32 87.93 19.32 29.21 20.47 28.54 20.47 87.93"/><polygon class="cls-11" points="27.63 51.64 23.72 52.9 23.72 51.61 27.63 50.24 27.63 51.64"/><polygon class="cls-11" points="16.19 55.55 12.28 56.9 12.28 55.52 16.19 54.15 16.19 55.55"/><polygon class="cls-12" points="40.72 12.97 54.97 20.01 54.97 91.88 40.72 91.88 40.72 12.97"/><polygon class="cls-13" points="81.44 42.47 59.59 34.31 59.59 42.96 81.44 50.63 81.44 42.47"/><polygon class="cls-14" points="59.59 47.58 59.59 66.78 81.44 71.53 81.44 54.5 59.59 47.58"/><polygon class="cls-15" points="59.59 91.88 81.44 91.88 81.44 75.46 59.59 71.39 59.59 91.88"/><polygon class="cls-11" points="73.14 42.47 69.7 41.27 69.7 40.01 73.14 41.22 73.14 42.47"/><polygon class="cls-11" points="73.14 56.35 69.7 55.15 69.7 53.89 73.14 55.1 73.14 56.35"/><polygon class="cls-11" points="73.14 78.11 69.7 77.39 69.7 76.14 73.14 76.85 73.14 78.11"/><polygon class="cls-16" points="0 28.41 40.72 7.76 59.59 17.17 59.59 29.7 81.44 38.36 81.44 18.52 40.72 0 0 22.41 0 28.41"/><polygon class="cls-17" points="40.72 0 0 22.41 0 28.41 40.72 7.76 40.72 0"/></svg>